<svg xmlns="http://www.w3.org/2000/svg">
  <?xml version="1.0" encoding="UTF-8"?>
<?xml version="1.0" encoding="UTF-8"?>
<symbol id="splitsmart-icon" viewBox="0 0 301 253">
<path d="M55.734375 42.45703125 C46.25921133 53.70412514 39.04099598 66.85502732 35 81 C34.59612061 82.38372803 34.59612061 82.38372803 34.18408203 83.79541016 C31.54047292 94.20550145 31.54302917 104.46382918 31.60888672 115.14794922 C31.62489922 118.23059846 31.60900259 121.31192288 31.58984375 124.39453125 C31.57127295 140.02260148 32.33924161 155.618737 38.5625 170.1875 C39.07913208 171.42983398 39.07913208 171.42983398 39.60620117 172.69726562 C50.12841581 196.99695382 70.46251085 216.76986399 95.07177734 226.61474609 C98.35680015 227.86929123 101.62009539 229.03441447 105 230 C105.92248535 230.26925293 106.8449707 230.53850586 107.79541016 230.81591797 C118.20550145 233.45952708 128.46382918 233.45697083 139.14794922 233.39111328 C142.23059846 233.37510078 145.31192288 233.39099741 148.39453125 233.41015625 C164.02260148 233.42872705 179.618737 232.66075839 194.1875 226.4375 C195.42983398 225.92086792 195.42983398 225.92086792 196.69726562 225.39379883 C221.45704582 214.67235584 240.67100746 194.2242918 250.8125 169.3125 C251.09037354 168.65572266 251.36824707 167.99894531 251.65454102 167.32226562 C257.2667717 152.74788134 257.51146369 136.89345818 257.44604492 121.49536133 C257.43749856 118.4369846 257.46648882 115.38046137 257.49804688 112.32226562 C257.60095048 83.50504197 248.35583587 57.56127653 227.93359375 36.83203125 C217.89738482 26.9983101 206.30508988 19.47673228 193.3125 14.1875 C192.65572266 13.90962646 191.99894531 13.63175293 191.32226562 13.34545898 C176.74788134 7.7332283 160.89345818 7.48853631 145.49536133 7.55395508 C142.4369846 7.56250144 139.38046137 7.53351118 136.32226562 7.50195312 C104.42271319 7.38804282 77.39724087 18.96402671 55.734375 42.45703125 Z " fill="#6366F1" transform="translate(0,0)"/>
<path d="M0 0 C1.7773201 -0.02409439 1.7773201 -0.02409439 3.59054565 -0.04867554 C8.99949612 -0.09310354 14.40830224 -0.13461157 19.81738281 -0.15722656 C22.67317689 -0.17057292 25.5282576 -0.19844118 28.38378906 -0.23925781 C32.4970302 -0.29804474 36.60950529 -0.31588281 40.72314453 -0.33056641 C42.0003537 -0.35323578 43.27756287 -0.37590515 44.59347534 -0.39926147 C54.44431125 -0.37569229 54.44431125 -0.37569229 57.54467773 2.53100586 C59.61008114 5.79133499 59.75378955 7.6773192 59.54345703 11.50537109 C59.49833984 12.57400391 59.45322266 13.64263672 59.40673828 14.74365234 C59.34873047 15.55189453 59.29072266 16.36013672 59.23095703 17.19287109 C60.34470703 17.28568359 60.34470703 17.28568359 61.48095703 17.38037109 C65.26218209 18.49755122 66.28338564 19.77568735 68.23095703 23.19287109 C68.69004353 26.15311282 68.61111834 29.0191703 68.48095703 32.00537109 C68.46291016 32.79363281 68.44486328 33.58189453 68.42626953 34.39404297 C68.37939751 36.3275137 68.30766113 38.26035394 68.23095703 40.19287109 C68.89095703 40.19287109 69.55095703 40.19287109 70.23095703 40.19287109 C72.58712178 43.72711822 72.52907983 45.37931211 72.54345703 49.56787109 C72.56021484 50.68935547 72.57697266 51.81083984 72.59423828 52.96630859 C72.23095703 56.19287109 72.23095703 56.19287109 70.74267578 58.64208984 C68.72836324 62.04091695 68.82581264 64.70572022 68.73095703 68.63037109 C68.60250743 73.93426934 68.23244692 77.72354733 65.23095703 82.19287109 C61.35243231 84.21319069 58.0330803 84.45450442 53.69995117 84.48339844 C52.39832535 84.49615814 51.09669952 84.50891785 49.75563049 84.52206421 C48.34245961 84.5251217 46.92928672 84.52734955 45.51611328 84.52880859 C44.05789561 84.53524048 42.59967923 84.54196914 41.14146423 84.54898071 C38.08931486 84.56093537 35.03727854 84.56466332 31.98510742 84.56347656 C28.08333123 84.56327327 24.18228253 84.59059362 20.28067875 84.62502098 C17.27026571 84.64730791 14.26002741 84.6513136 11.24954033 84.65025711 C9.811482 84.65260967 8.3734186 84.66141384 6.93544197 84.67692184 C4.92084331 84.69661793 2.90602996 84.68821202 0.89135742 84.67871094 C-0.25272079 84.68156097 -1.39679901 84.68441101 -2.57554626 84.68734741 C-7.62778638 83.90506601 -10.56647034 81.39693917 -14.11268616 77.84631348 C-16.15519556 74.57426426 -16.27018642 72.57862495 -16.27075195 68.73779297 C-16.2801329 67.45296021 -16.28951385 66.16812744 -16.29917908 64.84436035 C-16.28870041 63.45010713 -16.27733135 62.05586036 -16.26513672 60.66162109 C-16.2652918 59.22342862 -16.26678231 57.78523573 -16.26954651 56.3470459 C-16.27092873 53.33762055 -16.25840299 50.32867282 -16.2355957 47.31933594 C-16.20721096 43.46908247 -16.20995044 39.61962216 -16.22268581 35.76931 C-16.22965332 32.80093659 -16.22184161 29.83274529 -16.20942879 26.86439514 C-16.20492465 25.44508056 -16.2045684 24.02574635 -16.20849419 22.60643005 C-16.21141657 20.62023688 -16.19270294 18.63404777 -16.1730957 16.64794922 C-16.16769272 15.51941528 -16.16228973 14.39088135 -16.15672302 13.22814941 C-15.48825577 7.99449313 -12.66383466 4.60081382 -8.76904297 1.19287109 C-5.61163665 0.14040232 -3.31719133 0.0408566 0 0 Z " fill="#F8F8FE" transform="translate(118.76904296875,78.80712890625)"/>
<path d="M0 0 C21.78 0 43.56 0 66 0 C66 4.29 66 8.58 66 13 C62.9371875 13.0928125 62.9371875 13.0928125 59.8125 13.1875 C54.20660267 13.4767314 54.20660267 13.4767314 49.75 16.5 C48.88375 17.7375 48.88375 17.7375 48 19 C47.505 19.495 47.505 19.495 47 20 C46.36934098 27.83970759 46.36934098 27.83970759 49 35 C52.7609608 36.8670484 56.1484348 37.35044625 60.3125 37.625 C63.1278125 37.810625 63.1278125 37.810625 66 38 C66 41.96 66 45.92 66 50 C57.68997587 50.04513676 49.38004661 50.08185017 41.06993294 50.10362434 C37.21145203 50.11407343 33.35305915 50.128253 29.49462891 50.15087891 C25.77287808 50.1725674 22.05121206 50.18456014 18.32940292 50.18975449 C16.90758809 50.19345745 15.48577803 50.20068819 14.06399918 50.21146011 C12.07672886 50.22592119 10.08937369 50.22681646 8.10205078 50.22705078 C6.96953888 50.231492 5.83702698 50.23593323 4.67019653 50.24050903 C2 50 2 50 0 48 C-0.24050903 45.93722534 -0.24050903 45.93722534 -0.22705078 43.36669922 C-0.22668823 41.90526489 -0.22668823 41.90526489 -0.22631836 40.41430664 C-0.21608643 39.38813232 -0.20585449 38.36195801 -0.1953125 37.3046875 C-0.19329834 36.36310791 -0.19128418 35.42152832 -0.18920898 34.45141602 C-0.17872564 30.92589463 -0.15080316 27.40044255 -0.125 23.875 C-0.08375 15.99625 -0.0425 8.1175 0 0 Z " fill="#6467F1" transform="translate(112,104)"/>
<path d="M0 0 C0.99261337 0.00222061 1.98522675 0.00444122 3.00791931 0.00672913 C4.12900589 0.00680466 5.25009247 0.00688019 6.40515137 0.00695801 C8.2348069 0.01469994 8.2348069 0.01469994 10.10142517 0.02259827 C11.96377052 0.02472069 11.96377052 0.02472069 13.86373901 0.02688599 C17.16982383 0.03154861 20.47584039 0.04053955 23.78190613 0.05158997 C27.15338042 0.06180625 30.52486175 0.06638407 33.89634705 0.07142639 C40.51550667 0.08248056 47.13463385 0.09923715 53.75376892 0.12025452 C53.75376892 2.76025452 53.75376892 5.40025452 53.75376892 8.12025452 C46.48684564 8.16655001 39.21995404 8.20210944 31.95291328 8.22387886 C28.57869898 8.23432594 25.2045854 8.24850176 21.83042908 8.27113342 C17.95328574 8.29530337 14.07628615 8.30671962 10.19908142 8.31556702 C8.98447235 8.32588959 7.76986328 8.33621216 6.51844788 8.34684753 C5.39743683 8.3469986 4.27642578 8.34714966 3.1214447 8.3473053 C2.13105194 8.35174652 1.14065918 8.35618774 0.12025452 8.36076355 C-2.24623108 8.12025452 -2.24623108 8.12025452 -4.24623108 6.12025452 C-3.5228586 0.18860021 -3.5228586 0.18860021 0 0 Z " fill="#6366F1" transform="translate(116.24623107910156,87.87974548339844)"/>
<path d="M0 0 C1.38294718 0.01329757 2.76582404 0.03715018 4.1484375 0.0703125 C4.85484375 0.07933594 5.56125 0.08835937 6.2890625 0.09765625 C8.03399848 0.12123647 9.77876045 0.15710789 11.5234375 0.1953125 C11.5234375 2.8353125 11.5234375 5.4753125 11.5234375 8.1953125 C6.2434375 8.1953125 0.9634375 8.1953125 -4.4765625 8.1953125 C-4.8065625 6.2153125 -5.1365625 4.2353125 -5.4765625 2.1953125 C-3.4765625 0.1953125 -3.4765625 0.1953125 0 0 Z " fill="#6D70F2" transform="translate(171.4765625,124.8046875)"/>
</symbol>


  <symbol id="bluesky-icon" viewBox="0 0 16 17">
    <g clip-path="url(#bluesky-clip)"><path fill="#08060d" d="M7.75 7.735c-.693-1.348-2.58-3.86-4.334-5.097-1.68-1.187-2.32-.981-2.74-.79C.188 2.065.1 2.812.1 3.251s.241 3.602.398 4.13c.52 1.744 2.367 2.333 4.07 2.145-2.495.37-4.71 1.278-1.805 4.512 3.196 3.309 4.38-.71 4.987-2.746.608 2.036 1.307 5.91 4.93 2.746 2.72-2.746.747-4.143-1.747-4.512 1.702.189 3.55-.4 4.07-2.145.156-.528.397-3.691.397-4.13s-.088-1.186-.575-1.406c-.42-.19-1.06-.395-2.741.79-1.755 1.24-3.64 3.752-4.334 5.099"/></g>
    <defs><clipPath id="bluesky-clip"><path fill="#fff" d="M.1.85h15.3v15.3H.1z"/></clipPath></defs>
  </symbol>
  <symbol id="discord-icon" viewBox="0 0 20 19">
    <path fill="#08060d" d="M16.224 3.768a14.5 14.5 0 0 0-3.67-1.153c-.158.286-.343.67-.47.976a13.5 13.5 0 0 0-4.067 0c-.128-.306-.317-.69-.476-.976A14.4 14.4 0 0 0 3.868 3.77C1.546 7.28.916 10.703 1.231 14.077a14.7 14.7 0 0 0 4.5 2.306q.545-.748.965-1.587a9.5 9.5 0 0 1-1.518-.74q.191-.14.372-.293c2.927 1.369 6.107 1.369 8.999 0q.183.152.372.294-.723.437-1.52.74.418.838.963 1.588a14.6 14.6 0 0 0 4.504-2.308c.37-3.911-.63-7.302-2.644-10.309m-9.13 8.234c-.878 0-1.599-.82-1.599-1.82 0-.998.705-1.82 1.6-1.82.894 0 1.614.82 1.599 1.82.001 1-.705 1.82-1.6 1.82m5.91 0c-.878 0-1.599-.82-1.599-1.82 0-.998.705-1.82 1.6-1.82.893 0 1.614.82 1.599 1.82 0 1-.706 1.82-1.6 1.82"/>
  </symbol>
  <symbol id="documentation-icon" viewBox="0 0 21 20">
    <path fill="none" stroke="#aa3bff" stroke-linecap="round" stroke-linejoin="round" stroke-width="1.35" d="m15.5 13.333 1.533 1.322c.645.555.967.833.967 1.178s-.322.623-.967 1.179L15.5 18.333m-3.333-5-1.534 1.322c-.644.555-.966.833-.966 1.178s.322.623.966 1.179l1.534 1.321"/>
    <path fill="none" stroke="#aa3bff" stroke-linecap="round" stroke-linejoin="round" stroke-width="1.35" d="M17.167 10.836v-4.32c0-1.41 0-2.117-.224-2.68-.359-.906-1.118-1.621-2.08-1.96-.599-.21-1.349-.21-2.848-.21-2.623 0-3.935 0-4.983.369-1.684.591-3.013 1.842-3.641 3.428C3 6.449 3 7.684 3 10.154v2.122c0 2.558 0 3.838.706 4.726q.306.383.713.671c.76.536 1.79.64 3.581.66"/>
    <path fill="none" stroke="#aa3bff" stroke-linecap="round" stroke-linejoin="round" stroke-width="1.35" d="M3 10a2.78 2.78 0 0 1 2.778-2.778c.555 0 1.209.097 1.748-.047.48-.129.854-.503.982-.982.145-.54.048-1.194.048-1.749a2.78 2.78 0 0 1 2.777-2.777"/>
  </symbol>
  <symbol id="github-icon" viewBox="0 0 19 19">
    <path fill="#08060d" fill-rule="evenodd" d="M9.356 1.85C5.05 1.85 1.57 5.356 1.57 9.694a7.84 7.84 0 0 0 5.324 7.44c.387.079.528-.168.528-.376 0-.182-.013-.805-.013-1.454-2.165.467-2.616-.935-2.616-.935-.349-.91-.864-1.143-.864-1.143-.71-.48.051-.48.051-.48.787.051 1.2.805 1.2.805.695 1.194 1.817.857 2.268.649.064-.507.27-.857.49-1.052-1.728-.182-3.545-.857-3.545-3.87 0-.857.31-1.558.8-2.104-.078-.195-.349-1 .077-2.078 0 0 .657-.208 2.14.805a7.5 7.5 0 0 1 1.946-.26c.657 0 1.328.092 1.946.26 1.483-1.013 2.14-.805 2.14-.805.426 1.078.155 1.883.078 2.078.502.546.799 1.247.799 2.104 0 3.013-1.818 3.675-3.558 3.87.284.247.528.714.528 1.454 0 1.052-.012 1.896-.012 2.156 0 .208.142.455.528.377a7.84 7.84 0 0 0 5.324-7.441c.013-4.338-3.48-7.844-7.773-7.844" clip-rule="evenodd"/>
  </symbol>
  <symbol id="social-icon" viewBox="0 0 20 20">
    <path fill="none" stroke="#aa3bff" stroke-linecap="round" stroke-linejoin="round" stroke-width="1.35" d="M12.5 6.667a4.167 4.167 0 1 0-8.334 0 4.167 4.167 0 0 0 8.334 0"/>
    <path fill="none" stroke="#aa3bff" stroke-linecap="round" stroke-linejoin="round" stroke-width="1.35" d="M2.5 16.667a5.833 5.833 0 0 1 8.75-5.053m3.837.474.513 1.035c.07.144.257.282.414.309l.93.155c.596.1.736.536.307.965l-.723.73a.64.64 0 0 0-.152.531l.207.903c.164.715-.213.991-.84.618l-.872-.52a.63.63 0 0 0-.577 0l-.872.52c-.624.373-1.003.094-.84-.618l.207-.903a.64.64 0 0 0-.152-.532l-.723-.729c-.426-.43-.289-.864.306-.964l.93-.156a.64.64 0 0 0 .412-.31l.513-1.034c.28-.562.735-.562 1.012 0"/>
  </symbol>
  <symbol id="x-icon" viewBox="0 0 19 19">
    <path fill="#08060d" fill-rule="evenodd" d="M1.893 1.98c.052.072 1.245 1.769 2.653 3.77l2.892 4.114c.183.261.333.48.333.486s-.068.089-.152.183l-.522.593-.765.867-3.597 4.087c-.375.426-.734.834-.798.905a1 1 0 0 0-.118.148c0 .01.236.017.664.017h.663l.729-.83c.4-.457.796-.906.879-.999a692 692 0 0 0 1.794-2.038c.034-.037.301-.34.594-.675l.551-.624.345-.392a7 7 0 0 1 .34-.374c.006 0 .93 1.306 2.052 2.903l2.084 2.965.045.063h2.275c1.87 0 2.273-.003 2.266-.021-.008-.02-1.098-1.572-3.894-5.547-2.013-2.862-2.28-3.246-2.273-3.266.008-.019.282-.332 2.085-2.38l2-2.274 1.567-1.782c.022-.028-.016-.03-.65-.03h-.674l-.3.342a871 871 0 0 1-1.782 2.025c-.067.075-.405.458-.75.852a100 100 0 0 1-.803.91c-.148.172-.299.344-.99 1.127-.304.343-.32.358-.345.327-.015-.019-.904-1.282-1.976-2.808L6.365 1.85H1.8zm1.782.91 8.078 11.294c.772 1.08 1.413 1.973 1.425 1.984.016.017.241.02 1.05.017l1.03-.004-2.694-3.766L7.796 5.75 5.722 2.852l-1.039-.004-1.039-.004z" clip-rule="evenodd"/>
  </symbol>
</svg>
